<?xml version="1.0" encoding="iso-8859-1"?>
<!-- Generator: Adobe Illustrator 19.0.0, SVG Export Plug-In . SVG Version: 6.00 Build 0)  -->
<svg version="1.1" id="Capa_1" xmlns="http://www.w3.org/2000/svg" xmlns:xlink="http://www.w3.org/1999/xlink" x="0px" y="0px"
	 viewBox="0 0 511.999 511.999" style="enable-background:new 0 0 511.999 511.999;" xml:space="preserve">
<g>
	<g>
		<path fill="#fff" stroke-width="1" d="M504.395,414.462H466.62V176.579c0-4.201-3.404-7.605-7.605-7.605h-24.018V37.659c0-4.201-3.404-7.605-7.605-7.605H92.968
			c-4.201,0-7.605,3.404-7.605,7.605v67.916c0,4.201,3.404,7.605,7.605,7.605s7.605-3.404,7.605-7.605v-60.31h319.215v369.199
			h-81.651H182.992h-82.419V146.486c0-4.201-3.404-7.605-7.605-7.605s-7.605,3.404-7.605,7.605v22.488H61.344
			c-4.201,0-7.605,3.404-7.605,7.605v237.885H7.605c-4.201,0-7.605,3.404-7.605,7.605v29.43c0,16.789,13.659,30.447,30.447,30.447
			h451.105c16.789,0,30.447-13.659,30.447-30.447v-29.43C512,417.868,508.595,414.462,504.395,414.462z M434.997,184.184h16.413
			v230.28h-16.413V184.184z M190.597,429.673H330.53v5.855H190.597V429.673z M68.949,184.184h16.414v230.28H68.949V184.184z
			 M496.79,451.498c0,8.401-6.835,15.237-15.237,15.237H30.447c-8.401,0-15.237-6.835-15.237-15.237v-21.825h46.134h31.624h82.419
			v13.46c0,4.201,3.404,7.605,7.605,7.605h155.143c4.201,0,7.605-3.404,7.605-7.605v-13.46h81.651h31.623h37.775V451.498z"/>
	</g>
</g>
<g>
	<g>
		<path fill="#fff" stroke-width="1" d="M203.304,73.728h-76.113c-4.201,0-7.605,3.404-7.605,7.605v24.241c0,4.201,3.404,7.605,7.605,7.605h76.113
			c4.201,0,7.605-3.404,7.605-7.605V81.334C210.909,77.132,207.505,73.728,203.304,73.728z M195.699,97.969h-60.903v-9.031h60.903
			V97.969z"/>
	</g>
</g>
<g>
	<g>
		<path fill="#fff" stroke-width="1" d="M300.111,73.728h-76.112c-4.201,0-7.605,3.404-7.605,7.605v24.241c0,4.201,3.404,7.605,7.605,7.605h76.112
			c4.201,0,7.605-3.404,7.605-7.605V81.334C307.716,77.132,304.312,73.728,300.111,73.728z M292.506,97.969h-60.902v-9.031h60.902
			V97.969z"/>
	</g>
</g>
<g>
	<g>
		<path fill="#fff" stroke-width="1" d="M396.919,73.728h-76.112c-4.201,0-7.605,3.404-7.605,7.605v24.241c0,4.201,3.404,7.605,7.605,7.605h76.112
			c4.201,0,7.605-3.404,7.605-7.605V81.334C404.524,77.132,401.12,73.728,396.919,73.728z M389.313,97.969h-60.902v-9.031h60.902
			V97.969z"/>
	</g>
</g>
<g>
	<g>
		<path fill="#fff" stroke-width="1" d="M203.304,238.703h-76.113c-4.201,0-7.605,3.404-7.605,7.605v68.592c0,4.201,3.404,7.605,7.605,7.605h76.113
			c4.201,0,7.605-3.404,7.605-7.605v-68.592C210.909,242.108,207.505,238.703,203.304,238.703z M195.699,307.295h-60.903v-53.382
			h60.903V307.295z"/>
	</g>
</g>
<g>
	<g>
		<path fill="#fff" stroke-width="1" d="M300.111,238.703h-76.112c-4.201,0-7.605,3.404-7.605,7.605v68.592c0,4.201,3.404,7.605,7.605,7.605h76.112
			c4.2,0,7.605-3.405,7.605-7.605v-68.592C307.716,242.108,304.312,238.703,300.111,238.703z M292.506,307.295h-60.902v-53.382
			h60.902V307.295z"/>
	</g>
</g>
<g>
	<g>
		<path fill="#fff" stroke-width="1" d="M396.919,238.703h-76.112c-4.201,0-7.605,3.404-7.605,7.605v68.592c0,4.201,3.404,7.605,7.605,7.605h76.112
			c4.2,0,7.605-3.405,7.605-7.605v-68.592C404.524,242.108,401.12,238.703,396.919,238.703z M389.313,307.295h-60.902v-53.382
			h60.902V307.295z"/>
	</g>
</g>
<g>
	<g>
		<path fill="#fff" stroke-width="1" d="M396.919,130.232H127.191c-4.201,0-7.605,3.404-7.605,7.605v77.177c0,4.201,3.404,7.605,7.605,7.605h193.616
			c4.201,0,7.605-3.404,7.605-7.605c0-4.201-3.404-7.605-7.605-7.605H134.796v-61.966h254.518v61.966h-30.45
			c-4.201,0-7.605,3.404-7.605,7.605c0,4.201,3.404,7.605,7.605,7.605h38.055c4.201,0,7.605-3.404,7.605-7.605v-77.177
			C404.524,133.636,401.12,130.232,396.919,130.232z"/>
	</g>
</g>
<g>
	<g>
		<path fill="#fff" stroke-width="1" d="M182.992,332.435h-35.49c-4.201,0-7.605,3.404-7.605,7.605s3.404,7.605,7.605,7.605h35.49
			c4.201,0,7.605-3.404,7.605-7.605S187.192,332.435,182.992,332.435z"/>
	</g>
</g>
<g>
	<g>
		<path fill="#fff" stroke-width="1" d="M182.992,356.771h-35.49c-4.201,0-7.605,3.404-7.605,7.605c0,4.201,3.404,7.605,7.605,7.605h35.49
			c4.201,0,7.605-3.404,7.605-7.605C190.597,360.175,187.192,356.771,182.992,356.771z"/>
	</g>
</g>
<g>
	<g>
		<path fill="#fff" stroke-width="1" d="M280.337,332.435h-35.49c-4.201,0-7.605,3.404-7.605,7.605s3.404,7.605,7.605,7.605h35.49
			c4.201,0,7.605-3.404,7.605-7.605S284.537,332.435,280.337,332.435z"/>
	</g>
</g>
<g>
	<g>
		<path fill="#fff" stroke-width="1" d="M280.337,356.771h-35.49c-4.201,0-7.605,3.404-7.605,7.605c0,4.201,3.404,7.605,7.605,7.605h35.49
			c4.201,0,7.605-3.404,7.605-7.605C287.942,360.175,284.537,356.771,280.337,356.771z"/>
	</g>
</g>
<g>
	<g>
		<path fill="#fff" stroke-width="1" d="M377.683,332.435h-35.491c-4.201,0-7.605,3.404-7.605,7.605s3.404,7.605,7.605,7.605h35.491
			c4.201,0,7.605-3.404,7.605-7.605S381.883,332.435,377.683,332.435z"/>
	</g>
</g>
<g>
	<g>
		<path fill="#fff" stroke-width="1" d="M377.683,356.771h-35.491c-4.201,0-7.605,3.404-7.605,7.605c0,4.201,3.404,7.605,7.605,7.605h35.491
			c4.201,0,7.605-3.404,7.605-7.605C385.288,360.175,381.883,356.771,377.683,356.771z"/>
	</g>
</g>
</svg>
