<?xml version="1.0" encoding="utf-8"?>
<!-- Generator: Adobe Illustrator 16.0.0, SVG Export Plug-In . SVG Version: 6.00 Build 0)  -->
<!DOCTYPE svg PUBLIC "-//W3C//DTD SVG 1.1//EN" "http://www.w3.org/Graphics/SVG/1.1/DTD/svg11.dtd">
<svg version="1.1" id="Ebene_1" xmlns="http://www.w3.org/2000/svg" xmlns:xlink="http://www.w3.org/1999/xlink" x="0px" y="0px"
	 width="2409.45px" height="1559.061px" viewBox="0 0 2409.45 1559.061" enable-background="new 0 0 2409.45 1559.061"
	 xml:space="preserve">
<g>
	<path id="logo-0" d="M634.276,729.713l95.918,96.154h-7.088l-92.61-92.374l-23.153,23.153v69.221h-4.489V648.679h4.489v100.879l101.588-100.879 h6.615L634.276,729.713z"/>
	<path id="logo-1" d="M772.954,825.867V648.679h4.489v177.188H772.954z"/>
	<path id="logo-2" d="M838.631,653.404v172.463h-4.725V648.679h7.796l136.79,172.464V648.679h4.726v177.188h-7.324L838.631,653.404z"/>
	<path id="logo-3" d="M1025.269,648.679h66.623c48.668,0.236,88.358,39.927,88.358,88.595c0,48.904-39.69,88.594-88.595,88.594h-66.387V648.679z M1091.183,653.404h-61.189v167.739h61.189c46.542,0,84.105-37.328,84.105-83.869 C1175.288,690.731,1137.725,653.404,1091.183,653.404z"/>
	<path id="logo-4" d="M1222.298,821.379h106.077v4.488H1217.81V648.679h4.488V821.379z"/>
	<path id="logo-5" d="M1373.024,825.867V648.679h4.489v177.188H1373.024z"/>
	<path id="logo-6" d="M1438.701,653.404v172.463h-4.725V648.679h7.796l136.79,172.464V648.679h4.726v177.188h-7.324L1438.701,653.404z"/>
	<path id="logo-7" d="M1704.956,730.658h89.066v6.615c0,48.904-40.163,88.594-89.066,88.594c-48.904,0-88.595-39.689-88.595-88.594 s39.69-88.595,88.595-88.595c24.334,0,46.305,9.687,62.37,25.515l-3.308,3.071c-15.12-14.884-35.91-24.098-59.062-24.098 c-46.542,0-84.106,37.564-84.106,84.106c0,46.541,37.564,84.105,84.106,84.105c46.541,0,84.105-38.745,84.105-84.105v-1.654 h-84.105V730.658z"/>
</g>
</svg>
