<?xml version="1.0" encoding="iso-8859-1"?>
<!-- Generator: Adobe Illustrator 19.0.0, SVG Export Plug-In . SVG Version: 6.00 Build 0)  -->
<svg version="1.1" id="Capa_1" xmlns="http://www.w3.org/2000/svg" xmlns:xlink="http://www.w3.org/1999/xlink" x="0px" y="0px"
	 viewBox="0 0 512 512" style="enable-background:new 0 0 512 512;" xml:space="preserve">
<g>
	<g>
		<path d="M504.441,304.322c-4.176,0-7.559,3.383-7.559,7.559v10.02H15.118V42.658c0-1.39,1.13-2.52,2.52-2.52H128
			c4.176,0,7.559-3.383,7.559-7.559S132.176,25.02,128,25.02H17.638C7.913,25.02,0,32.933,0,42.658v328.207
			c0,9.725,7.913,17.638,17.638,17.638h152.529l-11.391,53.474h-15.884c-9.85,0-17.866,8.015-17.866,17.866v9.272
			c0,9.851,8.015,17.866,17.866,17.866h213.862c9.851,0,17.867-8.014,17.867-17.866v-9.272c0-9.85-8.015-17.866-17.867-17.866
			h-17.515l-11.391-53.474h166.515c9.725,0,17.638-7.913,17.638-17.638v-58.983C512,307.706,508.617,304.322,504.441,304.322z
			 M333.12,457.094h23.633c1.49,0,2.748,1.258,2.748,2.747v9.272c0,1.49-1.259,2.747-2.748,2.747H142.89
			c-1.49,0-2.747-1.258-2.747-2.747v-9.272c0-1.49,1.258-2.747,2.747-2.747h22.002H333.12z M174.231,441.975l11.392-53.474H312.39
			l11.392,53.474H174.231z M496.882,370.865c0,1.39-1.13,2.52-2.52,2.52H318.508H179.505H17.638c-1.39,0-2.52-1.13-2.52-2.52V337.02
			h481.764V370.865z"/>
	</g>
</g>
<g>
	<g>
		<path d="M494.362,25.02h-329.47c-4.176,0-7.559,3.383-7.559,7.559s3.383,7.559,7.559,7.559h329.47c1.39,0,2.52,1.13,2.52,2.52
			v235.514c0,4.176,3.383,7.559,7.559,7.559c4.176,0,7.559-3.383,7.559-7.559V42.658C512,32.933,504.087,25.02,494.362,25.02z"/>
	</g>
</g>
<g>
	<g>
		<path d="M367.457,135.857h-66.594V76.474c0-4.176-3.383-7.559-7.559-7.559H144.996c-4.176,0-7.559,3.383-7.559,7.559v148.307
			c0,4.176,3.384,7.559,7.559,7.559h66.595v59.383c0,4.176,3.383,7.559,7.559,7.559h148.307c4.176,0,7.559-3.383,7.559-7.559
			V143.416C375.016,139.24,371.632,135.857,367.457,135.857z M211.591,143.416v73.806h-59.036V84.033h133.19v51.824H219.15
			C214.974,135.857,211.591,139.24,211.591,143.416z M285.744,150.975v66.247h-59.035v-66.247H285.744z M359.899,284.163h-133.19
			V232.34h66.594c4.176,0,7.56-3.383,7.56-7.559v-73.806h59.035V284.163z"/>
	</g>
</g>
<g>
	<g>
		<path d="M450.849,80.134h-29.397c-4.176,0-7.559,3.383-7.559,7.559v91.649c0,4.175,3.384,7.558,7.559,7.558h29.397
			c4.176,0,7.559-3.383,7.559-7.559V87.693C458.408,83.517,455.025,80.134,450.849,80.134z M443.29,171.783h-14.279V95.252h14.279
			V171.783z"/>
	</g>
</g>
<g>
	<g>
		<path d="M450.849,202.561h-29.397c-4.176,0-7.559,3.383-7.559,7.559c0,4.176,3.384,7.559,7.559,7.559h29.397
			c4.176,0,7.559-3.383,7.559-7.559C458.408,205.944,455.025,202.561,450.849,202.561z"/>
	</g>
</g>
<g>
	<g>
		<path d="M450.849,233.341h-29.397c-4.176,0-7.559,3.383-7.559,7.559c0,4.176,3.384,7.559,7.559,7.559h29.397
			c4.176,0,7.559-3.383,7.559-7.559C458.408,236.725,455.025,233.341,450.849,233.341z"/>
	</g>
</g>
<g>
	<g>
		<path d="M450.849,264.121h-29.397c-4.176,0-7.559,3.383-7.559,7.559c0,4.176,3.384,7.559,7.559,7.559h29.397
			c4.176,0,7.559-3.383,7.559-7.559C458.408,267.504,455.025,264.121,450.849,264.121z"/>
	</g>
</g>
<g>
	<g>
		<path d="M93.732,64.443H55.937c-4.176,0-7.559,3.383-7.559,7.559v37.795c0,4.176,3.383,7.559,7.559,7.559h37.795
			c4.176,0,7.559-3.383,7.559-7.559V72.002C101.291,67.826,97.908,64.443,93.732,64.443z M86.173,102.238H63.496V79.561h22.677
			V102.238z"/>
	</g>
</g>
<g>
	<g>
		<path d="M93.732,123.404H55.937c-4.176,0-7.559,3.383-7.559,7.559v37.795c0,4.176,3.383,7.559,7.559,7.559h37.795
			c4.176,0,7.559-3.383,7.559-7.559v-37.795C101.291,126.787,97.908,123.404,93.732,123.404z M86.173,161.199H63.496v-22.677h22.677
			V161.199z"/>
	</g>
</g>
<g>
	<g>
		<path d="M93.732,182.364H55.937c-4.176,0-7.559,3.383-7.559,7.559v37.795c0,4.176,3.383,7.559,7.559,7.559h37.795
			c4.176,0,7.559-3.383,7.559-7.559v-37.795C101.291,185.748,97.908,182.364,93.732,182.364z M86.173,220.159H63.496v-22.677h22.677
			V220.159z"/>
	</g>
</g>
<g>
	<g>
		<path d="M93.732,241.325H55.937c-4.176,0-7.559,3.383-7.559,7.559v37.795c0,4.176,3.383,7.559,7.559,7.559h37.795
			c4.176,0,7.559-3.383,7.559-7.559v-37.795C101.291,244.709,97.908,241.325,93.732,241.325z M86.173,279.12H63.496v-22.677h22.677
			V279.12z"/>
	</g>
</g>
<g>
</g>
<g>
</g>
<g>
</g>
<g>
</g>
<g>
</g>
<g>
</g>
<g>
</g>
<g>
</g>
<g>
</g>
<g>
</g>
<g>
</g>
<g>
</g>
<g>
</g>
<g>
</g>
<g>
</g>
</svg>
