<?xml version="1.0" encoding="iso-8859-1"?>
<!-- Generator: Adobe Illustrator 19.0.0, SVG Export Plug-In . SVG Version: 6.00 Build 0)  -->
<svg version="1.1" id="Capa_1" xmlns="http://www.w3.org/2000/svg" xmlns:xlink="http://www.w3.org/1999/xlink" x="0px" y="0px"
	 viewBox="0 0 512.001 512.001" style="enable-background:new 0 0 512.001 512.001;" xml:space="preserve">
<g>
	<g>
		<path d="M490.909,147.899H325.751c-4.261,0-7.716,3.454-7.716,7.716s3.455,7.716,7.716,7.716h165.158
			c3.12,0,5.659,2.538,5.659,5.659v9.326c0,3.119-2.538,5.659-5.659,5.659h-52.552H158.125h-52.552c-3.12,0-5.659-2.539-5.659-5.659
			v-9.326c0-3.12,2.538-5.659,5.659-5.659h189.708c4.261,0,7.716-3.454,7.716-7.716s-3.455-7.716-7.716-7.716H105.574
			c-11.63,0-21.091,9.461-21.091,21.091v9.326c0,11.63,9.461,21.091,21.091,21.091h43.9L140.115,281
			c0,0.002-0.001,0.005-0.001,0.007l-21.692,189.114c-1.007,8.787,1.79,17.614,7.678,24.215
			c5.888,6.602,14.338,10.388,23.183,10.388H447.2c8.846,0,17.296-3.786,23.183-10.388c5.888-6.601,8.685-15.427,7.678-24.215
			l-21.409-186.643c0.12-0.542,0.19-1.105,0.19-1.684c0-1.195-0.28-2.324-0.765-3.333l-9.067-79.052h43.9
			c11.63,0,21.091-9.461,21.091-21.091v-9.326C512,157.36,502.539,147.899,490.909,147.899z M165.007,199.408h266.468l8.565,74.669
			H156.442L165.007,199.408z M462.729,471.879c0.514,4.488-0.858,8.815-3.863,12.185c-3.006,3.369-7.149,5.226-11.666,5.226H149.282
			c-4.517,0-8.66-1.857-11.666-5.226c-3.005-3.37-4.378-7.698-3.863-12.185l20.918-182.37h287.14L462.729,471.879z"/>
	</g>
</g>
<g>
	<g>
		<path d="M222.323,82.889h-6.543v-6.537c0-4.262-3.455-7.716-7.716-7.716s-7.716,3.454-7.716,7.716v6.537h-6.542
			c-4.261,0-7.716,3.454-7.716,7.716c0,4.262,3.455,7.716,7.716,7.716h6.542v6.55c0,4.262,3.455,7.716,7.716,7.716
			s7.716-3.454,7.716-7.716v-6.55h6.543c4.261,0,7.716-3.454,7.716-7.716S226.585,82.889,222.323,82.889z"/>
	</g>
</g>
<g>
	<g>
		<path d="M331.302,32.737h-17.756V14.994c0-4.262-3.455-7.716-7.716-7.716s-7.716,3.454-7.716,7.716v17.743h-17.756
			c-4.261,0-7.716,3.454-7.716,7.716s3.455,7.716,7.716,7.716h17.756v17.769c0,4.262,3.455,7.716,7.716,7.716
			s7.716-3.454,7.716-7.716V48.169h17.756c4.261,0,7.716-3.454,7.716-7.716S335.564,32.737,331.302,32.737z"/>
	</g>
</g>
<g>
	<g>
		<path d="M419.464,97.149h-6.542v-6.537c0-4.262-3.455-7.716-7.716-7.716s-7.716,3.454-7.716,7.716v6.537h-6.543
			c-4.261,0-7.716,3.454-7.716,7.716s3.455,7.716,7.716,7.716h6.543v6.549c0,4.262,3.455,7.716,7.716,7.716s7.716-3.454,7.716-7.716
			v-6.549h6.542c4.261,0,7.716-3.454,7.716-7.716S423.725,97.149,419.464,97.149z"/>
	</g>
</g>
<g>
	<g>
		<path d="M36.032,34.423H18.005C8.077,34.423,0,42.501,0,52.428v95.684c0,4.262,3.455,7.716,7.716,7.716s7.716-3.454,7.716-7.716
			v-22.265h23.171v319.562c0,1.419-1.154,2.572-2.572,2.572H18.005c-1.418,0-2.572-1.153-2.572-2.572V179.44
			c0-4.262-3.455-7.716-7.716-7.716S0,175.178,0,179.44v265.97c0,9.927,8.077,18.005,18.005,18.005h18.027
			c9.927,0,18.005-8.077,18.005-18.005V52.428C54.036,42.501,45.96,34.423,36.032,34.423z M38.604,110.415H15.432V52.428
			c0-1.419,1.154-2.572,2.572-2.572h18.027c1.418,0,2.572,1.153,2.572,2.572V110.415z"/>
	</g>
</g>
<g>
</g>
<g>
</g>
<g>
</g>
<g>
</g>
<g>
</g>
<g>
</g>
<g>
</g>
<g>
</g>
<g>
</g>
<g>
</g>
<g>
</g>
<g>
</g>
<g>
</g>
<g>
</g>
<g>
</g>
</svg>
